<svg xmlns="http://www.w3.org/2000/svg" width="18.855" height="24.005" viewBox="0 0 18.855 24.005">
  <path id="Path_3104" data-name="Path 3104" d="M18.855,5.455a2.428,2.428,0,0,0-2.4-2.307H14.285V2.176c0-.314-.343-.457-.657-.457H11.942A2.558,2.558,0,0,0,9.4,0h0A2.6,2.6,0,0,0,6.857,1.719H5.2c-.315,0-.629.143-.629.457v.972H2.4A2.427,2.427,0,0,0,0,5.462v16.37A2.3,2.3,0,0,0,2.4,24H16.456a2.3,2.3,0,0,0,2.4-2.164ZM5.714,2.862H7.285a.628.628,0,0,0,.543-.514A1.656,1.656,0,0,1,9.4,1.062a1.628,1.628,0,0,1,1.543,1.286.627.627,0,0,0,.572.514h1.628V5.148H5.714Zm1.51,15.284L5,20.26a.569.569,0,0,1-.4.172.512.512,0,0,1-.4-.172l-1.171-1.2a.6.6,0,0,1,0-.828.57.57,0,0,1,.8.028l.772.8,1.828-1.742a.571.571,0,0,1,.8.028h0a.257.257,0,0,1,.033.033.543.543,0,0,1-.033.767m0-4.571L5,15.689a.569.569,0,0,1-.4.171.511.511,0,0,1-.4-.171l-1.171-1.2a.6.6,0,0,1,0-.828.57.57,0,0,1,.8.028l.772.8,1.828-1.743a.571.571,0,0,1,.8.029h0a.257.257,0,0,1,.033.033.543.543,0,0,1-.033.767M7.225,9,5,11.118a.575.575,0,0,1-.4.172.521.521,0,0,1-.4-.172l-1.171-1.2a.6.6,0,0,1,0-.829.571.571,0,0,1,.8.029l.772.8L6.425,8.174a.571.571,0,0,1,.8.029.257.257,0,0,1,.033.033A.543.543,0,0,1,7.225,9m8.2,10.715H8.853a.572.572,0,0,1,0-1.143h6.571a.572.572,0,0,1,0,1.143m0-4.572H8.853a.572.572,0,0,1,0-1.143h6.571a.572.572,0,0,1,0,1.143m0-4.57H8.853a.572.572,0,0,1,0-1.143h6.571a.572.572,0,0,1,0,1.143" fill="#da0035"/>
</svg>
