<svg xmlns="http://www.w3.org/2000/svg" width="11.724" height="15.328" viewBox="0 0 11.724 15.328">
  <path id="Path_2923" data-name="Path 2923" d="M58.273,353.071H57.54v-1.46a3.664,3.664,0,0,0-7.328,0v1.46h-.733a1.467,1.467,0,0,0-1.465,1.46v7.3a1.469,1.469,0,0,0,1.465,1.461h8.794a1.469,1.469,0,0,0,1.465-1.461v-7.3a1.467,1.467,0,0,0-1.465-1.46m-4.4,6.568a1.46,1.46,0,1,1,1.465-1.46,1.467,1.467,0,0,1-1.465,1.46m2.272-6.568H51.6v-1.46a2.272,2.272,0,0,1,4.543,0Z" transform="translate(-48.014 -347.962)" fill="#fff" fill-rule="evenodd"/>
</svg>
