<svg xmlns="http://www.w3.org/2000/svg" xmlns:xlink="http://www.w3.org/1999/xlink" width="24.658" height="24.352" viewBox="0 0 24.658 24.352">
  <defs>
    <clipPath id="clip-path">
      <rect id="Rectangle_1324" data-name="Rectangle 1324" width="24.658" height="24.352" transform="translate(0 0)" fill="none"/>
    </clipPath>
  </defs>
  <g id="Group_1482" data-name="Group 1482" transform="translate(0 0)">
    <g id="Group_1481" data-name="Group 1481" clip-path="url(#clip-path)">
      <path id="Path_17331" data-name="Path 17331" d="M15.8,15.185a.931.931,0,0,0,.608.215,2.266,2.266,0,0,1,1.543.6,1.945,1.945,0,0,1,.176,2.719,2.2,2.2,0,0,1-1.045.681v.052a.674.674,0,0,1-1.348,0V19.4a2.219,2.219,0,0,1-1.045-.681,1.96,1.96,0,0,1-.472-1.268.674.674,0,0,1,1.348,0,.648.648,0,0,0,.236.487.966.966,0,0,0,1.214,0,.62.62,0,0,0,0-.973.927.927,0,0,0-.607-.216,2.263,2.263,0,0,1-1.543-.6,1.983,1.983,0,0,1-.648-1.452,1.962,1.962,0,0,1,.471-1.267,2.219,2.219,0,0,1,1.045-.681v-.093a.674.674,0,0,1,1.348,0v.093a2.2,2.2,0,0,1,1.045.681,1.958,1.958,0,0,1,.472,1.267.674.674,0,1,1-1.348,0,.646.646,0,0,0-.236-.486.966.966,0,0,0-1.214,0,.62.62,0,0,0,0,.973m-.129,5.927h.027a.673.673,0,0,1,.053,1.345.468.468,0,0,1-.053,0h-.031a.672.672,0,0,1-.672-.672v0a.672.672,0,0,1,.674-.67h0m-3.5-2.344a5,5,0,0,1-.19-5.013.674.674,0,0,0-.279-.91l-.044-.023h-.006a.675.675,0,0,0-.861.3,6.351,6.351,0,0,0,2.865,8.709.664.664,0,0,0,.144.05.626.626,0,0,0,.149.018.678.678,0,0,0,.359-.1.657.657,0,0,0,.248-.277.671.671,0,0,0-.31-.9l-.006,0a5.012,5.012,0,0,1-2.07-1.852m4.951-9.018h.032a.673.673,0,1,1,0,1.346h-.03a.673.673,0,1,1,0-1.346m3.5,1.595a6.351,6.351,0,0,0-1.462-.969.672.672,0,0,0-.618,1.192l.036.019a5.014,5.014,0,0,1,2.7,5.73,4.925,4.925,0,0,1-.437,1.136.672.672,0,0,0,.432.968.639.639,0,0,0,.163.021.674.674,0,0,0,.595-.357,6.221,6.221,0,0,0,.554-1.443,6.345,6.345,0,0,0-1.958-6.3" fill="#818386" fill-rule="evenodd"/>
      <path id="Path_17332" data-name="Path 17332" d="M18.694,8.161l.009.021A8.248,8.248,0,1,1,10.436,21.8h-5.5c-2.227-.011-2.575-1.426-2.644-2.18-.148-1.622,1.117-1.786.5-2.575a2.361,2.361,0,0,1,0-2.062.709.709,0,0,0,0-1.346,2.361,2.361,0,0,1,0-2.062.709.709,0,0,0,0-1.346A2.378,2.378,0,0,1,4.936,6.816h.891a2.249,2.249,0,0,1-.13-.327,2.358,2.358,0,0,1,0-1.406,2.152,2.152,0,0,1,.13-.328H2.377A2.378,2.378,0,1,1,2.377,0H13.991a2.375,2.375,0,0,1,2.381,2.369,2.317,2.317,0,0,1-.107.711,2.152,2.152,0,0,1-.13.328h3.45a2.378,2.378,0,0,1,0,4.755Zm1.619-3.106a1.032,1.032,0,0,0-.73-.3H7.968a1.029,1.029,0,0,0-.731,1.758,1.029,1.029,0,0,0,.731.3H19.583a1.031,1.031,0,0,0,.73-1.76M1.648,3.1a1.025,1.025,0,0,0,.729.3H13.991a1.031,1.031,0,1,0,0-2.062H2.374a1.03,1.03,0,0,0-.73,1.76M14.181,8.159H4.934a1.031,1.031,0,1,0,0,2.062h5.688a8.251,8.251,0,0,1,3.559-2.062m-4.67,3.408H4.933a1.031,1.031,0,1,0,0,2.062H8.526A8.386,8.386,0,0,1,9,12.459a8.054,8.054,0,0,1,.514-.892M8.226,14.975H4.934a1.031,1.031,0,0,0,0,2.062H8.2l-.033-.353c-.014-.2-.021-.39-.021-.583,0-.228.01-.455.028-.681.013-.148.03-.3.051-.445M4.2,20.144a1.031,1.031,0,0,0,.731.3H9.39a8.144,8.144,0,0,1-.92-2.061H4.934A1.031,1.031,0,0,0,4.2,20.144m7.318.834A6.883,6.883,0,1,0,9.495,16.1a6.885,6.885,0,0,0,2.026,4.877" fill="#818386" fill-rule="evenodd"/>
    </g>
  </g>
</svg>
