<svg xmlns="http://www.w3.org/2000/svg" width="23.972" height="23.953" viewBox="0 0 23.972 23.953">
  <path id="Path_148" data-name="Path 148" d="M870.477,779.191H853a3.251,3.251,0,0,1-3.251-3.243v-1.075a6.535,6.535,0,0,1,6.225-6.528l.393-.02.24.311a6.188,6.188,0,0,0,10.248,0l.237-.311.4.02a6.528,6.528,0,0,1,6.233,6.528v1.075a3.244,3.244,0,0,1-3.246,3.243m-8.745-8.419c3.516,0,6.37-3.486,6.374-7.768s-2.858-7.767-6.374-7.767-6.368,3.485-6.368,7.767,2.855,7.768,6.368,7.768m0-14.036c-2.686,0-4.871,2.81-4.871,6.268s2.186,6.268,4.871,6.268,4.873-2.81,4.873-6.268-2.186-6.268-4.873-6.268m-6.056,13.135a5.035,5.035,0,0,0-4.424,5v1.075A1.749,1.749,0,0,0,853,777.7h17.474a1.749,1.749,0,0,0,1.749-1.747v-1.075a5.029,5.029,0,0,0-4.435-5,7.649,7.649,0,0,1-12.115,0" transform="translate(-849.751 -755.238)" fill="#818386" fill-rule="evenodd"/>
</svg>
