<svg xmlns="http://www.w3.org/2000/svg" width="24.618" height="24.565" viewBox="0 0 24.618 24.565">
  <path id="Path_151" data-name="Path 151" d="M1021.876,764.635l-1.728-.292a9.7,9.7,0,0,0-.694-1.673l1.018-1.422a1.509,1.509,0,0,0-.165-1.954l-1.532-1.53a1.516,1.516,0,0,0-1.955-.164l-1.429,1.016a9.691,9.691,0,0,0-1.738-.714l-.288-1.7a1.519,1.519,0,0,0-1.5-1.268H1009.7a1.518,1.518,0,0,0-1.5,1.268l-.3,1.746a9.452,9.452,0,0,0-1.671.7l-1.414-1.017a1.518,1.518,0,0,0-.885-.281,1.5,1.5,0,0,0-1.074.446l-1.538,1.529a1.518,1.518,0,0,0-.164,1.955l1.028,1.442a9.43,9.43,0,0,0-.684,1.678l-1.707.287a1.517,1.517,0,0,0-1.27,1.5v2.161a1.517,1.517,0,0,0,1.27,1.5l1.748.3a9.518,9.518,0,0,0,.7,1.668l-1.014,1.406a1.509,1.509,0,0,0,.165,1.954l1.532,1.529a1.514,1.514,0,0,0,1.955.165l1.444-1.026a9.8,9.8,0,0,0,1.625.668l.288,1.724a1.519,1.519,0,0,0,1.5,1.268h2.17a1.518,1.518,0,0,0,1.5-1.268l.293-1.724a9.818,9.818,0,0,0,1.677-.694l1.424,1.016a1.521,1.521,0,0,0,1.959-.164l1.533-1.53a1.515,1.515,0,0,0,.164-1.954l-1.018-1.427a9.582,9.582,0,0,0,.695-1.673l1.728-.287a1.516,1.516,0,0,0,1.27-1.5v-2.161a1.5,1.5,0,0,0-1.26-1.5m-11.046-2.725a5.3,5.3,0,1,1-5.312,5.3,5.31,5.31,0,0,1,5.312-5.3m0,9.216a3.915,3.915,0,1,1,3.924-3.915,3.922,3.922,0,0,1-3.924,3.915m10.929-2.832a.132.132,0,0,1-.113.133l-2.16.359a.691.691,0,0,0-.556.508,8.24,8.24,0,0,1-.895,2.151.692.692,0,0,0,.03.754l1.27,1.786a.138.138,0,0,1-.015.174l-1.532,1.53a.131.131,0,0,1-.1.041.121.121,0,0,1-.077-.026l-1.785-1.268a.7.7,0,0,0-.756-.031,8.224,8.224,0,0,1-2.155.893.682.682,0,0,0-.509.554l-.366,2.156a.132.132,0,0,1-.133.113h-2.165a.133.133,0,0,1-.134-.113l-.36-2.156a.691.691,0,0,0-.51-.554,8.531,8.531,0,0,1-2.108-.862.71.71,0,0,0-.35-.092.683.683,0,0,0-.4.128l-1.8,1.279a.15.15,0,0,1-.077.025.137.137,0,0,1-.1-.041l-1.533-1.529a.139.139,0,0,1-.015-.175l1.265-1.771a.7.7,0,0,0,.031-.76,8.111,8.111,0,0,1-.906-2.145.7.7,0,0,0-.556-.508l-2.175-.369a.133.133,0,0,1-.113-.134v-2.161a.132.132,0,0,1,.113-.133l2.144-.359a.7.7,0,0,0,.561-.513,8.2,8.2,0,0,1,.88-2.156.682.682,0,0,0-.036-.749l-1.28-1.8a.139.139,0,0,1,.015-.174l1.533-1.53a.13.13,0,0,1,.1-.041.126.126,0,0,1,.078.026l1.774,1.263a.7.7,0,0,0,.761.03,8.16,8.16,0,0,1,2.15-.9.7.7,0,0,0,.509-.555l.371-2.17a.133.133,0,0,1,.133-.114h2.166a.134.134,0,0,1,.134.114l.36,2.139a.694.694,0,0,0,.514.56,8.361,8.361,0,0,1,2.207.9.7.7,0,0,0,.756-.031l1.774-1.272a.151.151,0,0,1,.077-.026.138.138,0,0,1,.1.041l1.532,1.529a.14.14,0,0,1,.016.175l-1.27,1.781a.692.692,0,0,0-.031.755,8.247,8.247,0,0,1,.895,2.15.681.681,0,0,0,.556.508l2.16.364a.134.134,0,0,1,.113.134v2.161Z" transform="translate(-998.519 -754.931)" fill="#818386" fill-rule="evenodd"/>
</svg>
