<svg xmlns="http://www.w3.org/2000/svg" xmlns:xlink="http://www.w3.org/1999/xlink" width="15.342" height="10.428" viewBox="0 0 15.342 10.428">
  <defs>
    <clipPath id="clip-path">
      <rect id="Rectangle_651" data-name="Rectangle 651" width="15.342" height="10.428" transform="translate(0 0)" fill="none"/>
    </clipPath>
  </defs>
  <g id="Group_1504" data-name="Group 1504" transform="translate(-299.111 -427.913)">
    <g id="Group_999" data-name="Group 999" transform="translate(299.111 427.914)">
      <g id="Group_998" data-name="Group 998" clip-path="url(#clip-path)">
        <path id="Path_3090" data-name="Path 3090" d="M7.671,0A8.166,8.166,0,0,0,0,5.183a8.031,8.031,0,0,0,7.671,5.243,8.049,8.049,0,0,0,7.671-5.243A7.932,7.932,0,0,0,7.671,0m0,8.72a3.475,3.475,0,1,1,3.476-3.476A3.475,3.475,0,0,1,7.671,8.723" fill="#fff"/>
        <path id="Path_3091" data-name="Path 3091" d="M7.671,3.153A2.093,2.093,0,1,0,9.764,5.246,2.093,2.093,0,0,0,7.671,3.153" fill="#fff"/>
      </g>
    </g>
  </g>
</svg>
