<svg xmlns="http://www.w3.org/2000/svg" xmlns:xlink="http://www.w3.org/1999/xlink" width="250" height="66.451" viewBox="0 0 250 66.451">
  <defs>
    <clipPath id="clip-path">
      <rect id="Rectangle_477" data-name="Rectangle 477" width="250" height="47.443" fill="none"/>
    </clipPath>
  </defs>
  <g id="Group_996" data-name="Group 996" transform="translate(-88 -165)">
    <g id="Group_418" data-name="Group 418" transform="translate(88 165)">
      <g id="Group_417" data-name="Group 417" clip-path="url(#clip-path)">
        <path id="Path_2883" data-name="Path 2883" d="M1.07,24.645a2.189,2.189,0,0,1,.088-3.811L38.622.417a2.242,2.242,0,0,1,3.571,2.116l.1,42.667a2.189,2.189,0,0,1-3.3,1.909l-7.7-4.563L8.773,29.209Zm30.219,17.9h0L27.067,26.06a1.493,1.493,0,0,0-1.81-1.073L8.773,29.209l4.22,16.485a1.491,1.491,0,0,0,1.81,1.071Z" transform="translate(0 0)" fill="#ea3f4b" fill-rule="evenodd"/>
        <path id="Path_2884" data-name="Path 2884" d="M33.4.2,18.67,25.07a1.476,1.476,0,0,1,.683.909l4.223,16.485,7.7,4.563a2.189,2.189,0,0,0,3.3-1.909l-.1-42.667A2.461,2.461,0,0,0,33.4.2" transform="translate(7.715 0.08)" fill="#a82530" fill-rule="evenodd"/>
        <path id="Path_2885" data-name="Path 2885" d="M16.032,25.387,9.678,36.113a1.486,1.486,0,0,0,1.126.163l16.485-4.22Z" transform="translate(3.999 10.49)" fill="#a82530" fill-rule="evenodd"/>
        <path id="Path_2886" data-name="Path 2886" d="M66.714,7.383H63.388a1.373,1.373,0,0,0-1.374,1.372V31.629A1.373,1.373,0,0,0,63.388,33h3.327a1.373,1.373,0,0,0,1.374-1.372V19.269a6.515,6.515,0,0,1,2.044-4.849,7.521,7.521,0,0,1,5.181-1.942c.529,0,1.043.1,1.569.138a1.333,1.333,0,0,0,1.358-1.375V8.154c0-1.234-1.118-1.423-2.111-1.423-5.414-.165-7.7,4.377-8.04,4.778V8.755a1.373,1.373,0,0,0-1.374-1.372" transform="translate(25.625 2.779)" fill="#464749" fill-rule="evenodd"/>
        <path id="Path_2887" data-name="Path 2887" d="M41.7,29.216h2a5.78,5.78,0,0,1,1.384.163,3.2,3.2,0,0,1,1.143.527,2.58,2.58,0,0,1,.774.947,3.181,3.181,0,0,1,.287,1.413,2.887,2.887,0,0,1-.278,1.3,2.787,2.787,0,0,1-.749.943,3.334,3.334,0,0,1-1.088.578,4.222,4.222,0,0,1-1.293.2H41.7Zm1.335,4.83h.694a3.771,3.771,0,0,0,.861-.093,1.858,1.858,0,0,0,.69-.312,1.507,1.507,0,0,0,.458-.575A2.024,2.024,0,0,0,45.9,32.2a1.686,1.686,0,0,0-.167-.774,1.565,1.565,0,0,0-.449-.544,1.95,1.95,0,0,0-.664-.321,2.915,2.915,0,0,0-.8-.107h-.789Zm7.361-4.83h4.12V30.45H51.728V31.58h2.63v1.234h-2.63v1.232h2.938V35.28H50.393Zm7.541,0h1.335v4.83h2.476V35.28H57.934Zm6.675,0h1.337V35.28H64.609Zm4.1,0h1.525l1.5,3.974h.016l1.525-3.974H74.7L72.2,35.28H71.131Zm8.826,0h4.12V30.45H78.869V31.58H81.5v1.234H78.869v1.232h2.937V35.28H77.532Zm7.49,0h2.346a4.193,4.193,0,0,1,.879.09,2.087,2.087,0,0,1,.728.3,1.5,1.5,0,0,1,.5.565,1.915,1.915,0,0,1,.185.888,1.773,1.773,0,0,1-.335,1.091,1.5,1.5,0,0,1-.977.57l1.542,2.561h-1.6l-1.268-2.424h-.66V35.28H85.022Zm1.336,2.51h.789q.18,0,.382-.013a1.21,1.21,0,0,0,.363-.076.638.638,0,0,0,.27-.2.617.617,0,0,0,.107-.386.592.592,0,0,0-.335-.578,1.06,1.06,0,0,0-.334-.1,2.766,2.766,0,0,0-.369-.027h-.873Zm6.343-2.51h1.337V35.28H92.7Zm4.7,0h1.815l2.579,4.214h.017V29.216h1.335V35.28H101.4l-2.647-4.316h-.017V35.28H97.4Zm14.614,5.636a4.771,4.771,0,0,1-1.232.445,6.231,6.231,0,0,1-1.311.137,3.738,3.738,0,0,1-1.31-.222,3,3,0,0,1-1.036-.639,2.889,2.889,0,0,1-.681-1.006,3.681,3.681,0,0,1,0-2.638,2.9,2.9,0,0,1,.681-1.006,3.013,3.013,0,0,1,1.036-.637,3.739,3.739,0,0,1,1.31-.223,4.842,4.842,0,0,1,1.341.177,2.605,2.605,0,0,1,1.074.6l-.941,1.027a1.9,1.9,0,0,0-.618-.428,2.183,2.183,0,0,0-.856-.146,1.97,1.97,0,0,0-.774.146,1.742,1.742,0,0,0-.595.407,1.8,1.8,0,0,0-.382.62,2.227,2.227,0,0,0-.133.78,2.2,2.2,0,0,0,.133.783,1.818,1.818,0,0,0,.382.618,1.742,1.742,0,0,0,.595.407,2,2,0,0,0,.774.146,2.579,2.579,0,0,0,.755-.1,2.981,2.981,0,0,0,.5-.2v-.986h-1.087V31.684h2.371Zm11.344,0a4.771,4.771,0,0,1-1.232.445,6.241,6.241,0,0,1-1.311.137,3.738,3.738,0,0,1-1.31-.222,2.994,2.994,0,0,1-1.036-.639,2.889,2.889,0,0,1-.681-1.006,3.681,3.681,0,0,1,0-2.638,2.9,2.9,0,0,1,.681-1.006,3.013,3.013,0,0,1,1.036-.637,3.738,3.738,0,0,1,1.31-.223,4.842,4.842,0,0,1,1.341.177,2.605,2.605,0,0,1,1.074.6l-.941,1.027a1.9,1.9,0,0,0-.618-.428,2.183,2.183,0,0,0-.856-.146,1.97,1.97,0,0,0-.774.146,1.742,1.742,0,0,0-.595.407,1.782,1.782,0,0,0-.382.62,2.227,2.227,0,0,0-.133.78,2.2,2.2,0,0,0,.133.783,1.8,1.8,0,0,0,.382.618,1.742,1.742,0,0,0,.595.407,2,2,0,0,0,.774.146,2.569,2.569,0,0,0,.753-.1,2.953,2.953,0,0,0,.506-.2v-.986h-1.088V31.684h2.373Zm3.318-5.636h2.347a4.179,4.179,0,0,1,.878.09,2.064,2.064,0,0,1,.728.3,1.487,1.487,0,0,1,.5.565,1.916,1.916,0,0,1,.184.888,1.781,1.781,0,0,1-.334,1.091,1.5,1.5,0,0,1-.977.57l1.542,2.561h-1.6l-1.268-2.424h-.659V35.28h-1.337Zm1.337,2.51h.787q.18,0,.382-.013a1.21,1.21,0,0,0,.365-.076.634.634,0,0,0,.269-.2.608.608,0,0,0,.107-.386.589.589,0,0,0-.334-.578,1.082,1.082,0,0,0-.334-.1,2.766,2.766,0,0,0-.369-.027h-.873Zm6.41-2.51h4.12V30.45h-2.784V31.58h2.63v1.234h-2.63v1.232H138.7V35.28h-4.274Zm9.484,0h1.105l2.638,6.064h-1.508L145.62,34h-2.356l-.506,1.285h-1.473Zm.514,1.765-.736,1.884h1.481Zm6.368-.582h-1.73V29.216h4.8V30.4h-1.73V35.28h-1.335Zm8.423-1.183h2a5.78,5.78,0,0,1,1.384.163,3.2,3.2,0,0,1,1.143.527,2.58,2.58,0,0,1,.774.947,3.162,3.162,0,0,1,.287,1.413,2.869,2.869,0,0,1-.278,1.3,2.787,2.787,0,0,1-.749.943,3.334,3.334,0,0,1-1.088.578,4.208,4.208,0,0,1-1.293.2h-2.183Zm1.335,4.83h.694a3.772,3.772,0,0,0,.861-.093,1.848,1.848,0,0,0,.69-.312,1.507,1.507,0,0,0,.458-.575,2.024,2.024,0,0,0,.167-.869,1.686,1.686,0,0,0-.167-.774,1.565,1.565,0,0,0-.449-.544,1.955,1.955,0,0,0-.663-.321,2.925,2.925,0,0,0-.8-.107h-.789Zm7.311-4.83H170.2a4.179,4.179,0,0,1,.878.09,2.083,2.083,0,0,1,.729.3,1.5,1.5,0,0,1,.5.565,1.916,1.916,0,0,1,.184.888,1.781,1.781,0,0,1-.334,1.091,1.5,1.5,0,0,1-.977.57l1.542,2.561h-1.6l-1.268-2.424h-.66V35.28h-1.335Zm1.335,2.51h.789c.119,0,.246,0,.38-.013a1.21,1.21,0,0,0,.365-.076.638.638,0,0,0,.27-.2.617.617,0,0,0,.107-.386.593.593,0,0,0-.335-.578,1.06,1.06,0,0,0-.334-.1,2.766,2.766,0,0,0-.369-.027h-.873Zm6.343-2.51h1.335V35.28h-1.335Zm4.1,0h1.525l1.5,3.974h.018l1.523-3.974h1.43l-2.5,6.064h-1.071Zm8.826,0h4.12V30.45h-2.784V31.58h2.63v1.234h-2.63v1.232h2.938V35.28h-4.274Zm7.49,0h2.346a4.16,4.16,0,0,1,.878.09,2.082,2.082,0,0,1,.729.3,1.5,1.5,0,0,1,.5.565,1.916,1.916,0,0,1,.184.888,1.781,1.781,0,0,1-.334,1.091,1.5,1.5,0,0,1-.977.57l1.542,2.561h-1.6l-1.268-2.424h-.66V35.28h-1.335Zm1.335,2.51h.789c.119,0,.246,0,.38-.013a1.21,1.21,0,0,0,.365-.076.638.638,0,0,0,.27-.2.617.617,0,0,0,.107-.386.64.64,0,0,0-.095-.367.627.627,0,0,0-.24-.211,1.06,1.06,0,0,0-.334-.1,2.766,2.766,0,0,0-.369-.027h-.873ZM206.64,30.7a.95.95,0,0,0-.441-.3,1.571,1.571,0,0,0-.527-.1,1.392,1.392,0,0,0-.3.034,1.14,1.14,0,0,0-.291.107.642.642,0,0,0-.223.192.5.5,0,0,0-.085.293.479.479,0,0,0,.2.418,1.906,1.906,0,0,0,.519.249c.208.069.432.137.673.2a2.794,2.794,0,0,1,.671.293,1.592,1.592,0,0,1,.519.5,1.543,1.543,0,0,1,.206.848,1.951,1.951,0,0,1-.189.883,1.791,1.791,0,0,1-.51.625,2.176,2.176,0,0,1-.745.369,3.3,3.3,0,0,1-.895.119,3.24,3.24,0,0,1-1.1-.179,2.754,2.754,0,0,1-.943-.582l.951-1.044a1.392,1.392,0,0,0,.519.424,1.445,1.445,0,0,0,.977.11,1.058,1.058,0,0,0,.3-.116.621.621,0,0,0,.213-.2.483.483,0,0,0,.082-.283.511.511,0,0,0-.211-.432,1.946,1.946,0,0,0-.526-.27c-.212-.073-.44-.148-.685-.222a3.178,3.178,0,0,1-.685-.3,1.657,1.657,0,0,1-.527-.5,1.419,1.419,0,0,1-.209-.814,1.822,1.822,0,0,1,.192-.856,1.859,1.859,0,0,1,.514-.616,2.242,2.242,0,0,1,.741-.373,3.062,3.062,0,0,1,.865-.124,3.428,3.428,0,0,1,.993.146,2.285,2.285,0,0,1,.865.489Z" transform="translate(17.23 12.009)" fill="#96999c" fill-rule="evenodd"/>
        <path id="Path_2888" data-name="Path 2888" d="M163.68,7.19h-3.735a1.376,1.376,0,0,0-1.252,1.88l10.24,24.176-4.288,11.032.636-1.637a1.446,1.446,0,0,0-.03.285,1.351,1.351,0,0,0,1.351,1.351h3.163a1.348,1.348,0,0,0,1.2-.721l-.28.721,2.763-7.111.066-.17,1.457-3.751,9.445-24.3a1.375,1.375,0,0,0-1.294-1.752h-3.4a1.373,1.373,0,0,0-1.224.794l-6.229,17.285h-.41L164.9,7.986a1.38,1.38,0,0,0-1.224-.8" transform="translate(65.534 2.971)" fill="#464749" fill-rule="evenodd"/>
        <path id="Path_2889" data-name="Path 2889" d="M140.809.019a3.7,3.7,0,1,1-3.7,3.7,3.7,3.7,0,0,1,3.7-3.7" transform="translate(56.657 0.008)" fill="#464749" fill-rule="evenodd"/>
        <path id="Path_2890" data-name="Path 2890" d="M135.832,13.235a1.382,1.382,0,0,0,1.572.055l2.2-1.981a1.389,1.389,0,0,0,.1-1.844c-2.053-1.981-5.346-2.736-8.122-2.736a13.369,13.369,0,0,0-5.77,1.2,7.444,7.444,0,0,0-4.488,7,5.979,5.979,0,0,0,3.516,5.911,18.423,18.423,0,0,0,4.474,1.334,14.879,14.879,0,0,1,4.936,1.635A2.433,2.433,0,0,1,135.386,26a2.691,2.691,0,0,1-1.276,2.28,6.083,6.083,0,0,1-3.289.927,6.712,6.712,0,0,1-3.618-.928,17.513,17.513,0,0,1-1.571-1.207,1.421,1.421,0,0,0-1.8-.235l-2.3,2.152a1.382,1.382,0,0,0,.085,1.882,11.6,11.6,0,0,0,5.548,2.52,18.827,18.827,0,0,0,7.246-.168,11,11,0,0,0,3.628-1.437,7,7,0,0,0,3.419-6.275,6.31,6.31,0,0,0-3.52-6.131,18.308,18.308,0,0,0-4.86-1.543,17.573,17.573,0,0,1-4.531-1.415,2.048,2.048,0,0,1-1.15-1.933c0-2.135,2.178-2.989,4.022-2.989a6.094,6.094,0,0,1,4.413,1.735" transform="translate(50.084 2.78)" fill="#464749" fill-rule="evenodd"/>
        <path id="Path_2891" data-name="Path 2891" d="M87.358,7.19H83.663a1.375,1.375,0,0,0-1.269,1.833L91.818,32.1a1.368,1.368,0,0,0,1.2.709h4.806a1.372,1.372,0,0,0,1.245-.794l9.022-22.989a1.375,1.375,0,0,0-1.269-1.837h-3.26a1.351,1.351,0,0,0-.731.225,1.387,1.387,0,0,0-.5.586l-6.9,17.431L88.584,8a1.374,1.374,0,0,0-1.227-.806" transform="translate(34.014 2.971)" fill="#464749" fill-rule="evenodd"/>
        <path id="Path_2892" data-name="Path 2892" d="M78.731.019a3.7,3.7,0,1,1-3.7,3.7,3.7,3.7,0,0,1,3.7-3.7" transform="translate(31.005 0.008)" fill="#464749" fill-rule="evenodd"/>
        <path id="Path_2893" data-name="Path 2893" d="M80.2,7.191H76.873A1.372,1.372,0,0,0,75.5,8.563V31.675a1.372,1.372,0,0,0,1.352,1.135H80.2a1.373,1.373,0,0,0,1.372-1.372V8.563A1.373,1.373,0,0,0,80.2,7.191" transform="translate(31.199 2.971)" fill="#464749" fill-rule="evenodd"/>
        <path id="Path_2894" data-name="Path 2894" d="M114.083,6.705a13.5,13.5,0,1,0,13.5,13.5,13.5,13.5,0,0,0-13.5-13.5m0,5.449a8.047,8.047,0,1,1-8.047,8.047,8.046,8.046,0,0,1,8.047-8.047" transform="translate(41.565 2.77)" fill="#464749" fill-rule="evenodd"/>
        <path id="Path_2895" data-name="Path 2895" d="M142.281,7.191h-3.328a1.373,1.373,0,0,0-1.374,1.372V31.675a1.375,1.375,0,0,0,1.354,1.135h3.348a1.373,1.373,0,0,0,1.372-1.372V8.563a1.373,1.373,0,0,0-1.372-1.372" transform="translate(56.85 2.971)" fill="#464749" fill-rule="evenodd"/>
        <path id="Path_2896" data-name="Path 2896" d="M61.473,31.237v3.269a1.372,1.372,0,0,0,1.352,1.135h3.348a1.372,1.372,0,0,0,1.372-1.372V1.548A1.372,1.372,0,0,0,66.173.174H62.845a1.374,1.374,0,0,0-1.374,1.35V13.332C56.959,8.06,48.085,8.08,43.426,13.142a14.253,14.253,0,0,0-3.563,9.689c0,7.612,4.778,13.461,12.647,13.461,3.793,0,7.318-1.509,8.963-5.055M45.937,22.831a7.878,7.878,0,1,1,15.753,0,7.878,7.878,0,1,1-15.753,0" transform="translate(16.472 0.072)" fill="#464749" fill-rule="evenodd"/>
        <path id="Path_2897" data-name="Path 2897" d="M143.8,9.982v2.67a1.373,1.373,0,0,0,1.34,1.214h4.036V26.031c0,2.708.2,6.1,2.682,7.757a10.292,10.292,0,0,0,5.62,1.252,16.243,16.243,0,0,0,3.992-.458,1.372,1.372,0,0,0,.944-1.142V30.96a1.37,1.37,0,0,0-1.362-1.207c-.2,0-.759.116-1.015.141a6.31,6.31,0,0,1-2.824-.252c-1.642-.644-1.966-2.582-1.966-4.155V13.866h5.827a1.371,1.371,0,0,0,1.34-1.214V9.982a1.372,1.372,0,0,0-1.34-1.214h-5.827V3.921a1.373,1.373,0,0,0-1.22-1.341H150.4a1.375,1.375,0,0,0-1.22,1.341V8.768h-4.036a1.374,1.374,0,0,0-1.34,1.214" transform="translate(59.423 1.066)" fill="#464749" fill-rule="evenodd"/>
      </g>
    </g>
    <path id="Path_3078" data-name="Path 3078" d="M428.666,133.589H355.045A2.051,2.051,0,0,1,353,131.544v-7.5A2.051,2.051,0,0,1,355.045,122h73.621a2.051,2.051,0,0,1,2.045,2.045v7.5A2.051,2.051,0,0,1,428.666,133.589Z" transform="translate(-94.726 97.863)" fill="#ef585e"/>
    <g id="Group_995" data-name="Group 995" transform="translate(263.421 222.862)">
      <path id="Path_3079" data-name="Path 3079" d="M368.1,131.2h1.841a4.936,4.936,0,0,1,1.261.136,3.718,3.718,0,0,1,1.057.477,2.292,2.292,0,0,1,.716.886,2.915,2.915,0,0,1,.273,1.3,2.674,2.674,0,0,1-.273,1.193,2.434,2.434,0,0,1-.682.852,3.082,3.082,0,0,1-.988.545,3.489,3.489,0,0,1-1.193.17H368.1V131.2Zm1.227,4.431h.648a2.905,2.905,0,0,0,.784-.1,3.694,3.694,0,0,0,.648-.273,1.509,1.509,0,0,0,.409-.511,1.777,1.777,0,0,0,.17-.784,1.584,1.584,0,0,0-.17-.716,1.509,1.509,0,0,0-.409-.511,1.73,1.73,0,0,0-.613-.307,2.659,2.659,0,0,0-.75-.1h-.716v3.306Z" transform="translate(-368.1 -131.064)" fill="#fff"/>
      <path id="Path_3080" data-name="Path 3080" d="M388.2,131.2h3.783v1.125h-2.556v1.057h2.42v1.125h-2.42v1.125h2.693v1.125H388.2Z" transform="translate(-381.349 -131.064)" fill="#fff"/>
      <path id="Path_3081" data-name="Path 3081" d="M403.4,131.2h1.4l1.363,3.647h0l1.4-3.647h1.329l-2.284,5.59h-.954Z" transform="translate(-391.368 -131.064)" fill="#fff"/>
      <path id="Path_3082" data-name="Path 3082" d="M423.9,131.2h3.783v1.125h-2.556v1.057h2.42v1.125h-2.42v1.125h2.693v1.125H423.9Z" transform="translate(-404.881 -131.064)" fill="#fff"/>
      <path id="Path_3083" data-name="Path 3083" d="M440.9,131.2h1.227v4.431h2.284v1.125H440.9V131.2Z" transform="translate(-416.087 -131.064)" fill="#fff"/>
      <path id="Path_3084" data-name="Path 3084" d="M454.8,133.731a2.921,2.921,0,0,1,.239-1.227,3.1,3.1,0,0,1,.614-.92,2.983,2.983,0,0,1,.954-.579,3.51,3.51,0,0,1,1.193-.2,3.241,3.241,0,0,1,1.193.2,2.983,2.983,0,0,1,.954.579,2.429,2.429,0,0,1,.614.92,3.419,3.419,0,0,1,.239,1.227,2.819,2.819,0,0,1-.239,1.227,2.564,2.564,0,0,1-.614.92,2.982,2.982,0,0,1-.954.579,3.511,3.511,0,0,1-1.193.2,3.241,3.241,0,0,1-1.193-.2,2.982,2.982,0,0,1-.954-.579,2.429,2.429,0,0,1-.614-.92A3.419,3.419,0,0,1,454.8,133.731Zm1.261,0a1.581,1.581,0,0,0,.136.716,1.994,1.994,0,0,0,.341.579,1.557,1.557,0,0,0,.545.375,1.947,1.947,0,0,0,1.431,0,1.558,1.558,0,0,0,.545-.375,1.632,1.632,0,0,0,.341-.579,2.229,2.229,0,0,0,.136-.716,1.581,1.581,0,0,0-.136-.716,3.238,3.238,0,0,0-.341-.579,1.558,1.558,0,0,0-.545-.375,1.947,1.947,0,0,0-1.431,0,1.557,1.557,0,0,0-.545.375,1.63,1.63,0,0,0-.341.579A1.581,1.581,0,0,0,456.061,133.731Z" transform="translate(-425.249 -130.8)" fill="#fff"/>
      <path id="Path_3085" data-name="Path 3085" d="M477.3,131.2h2.079a6.615,6.615,0,0,1,.818.068,1.516,1.516,0,0,1,.682.273,1.274,1.274,0,0,1,.443.511,2.049,2.049,0,0,1,0,1.636,1.085,1.085,0,0,1-.443.511,1.385,1.385,0,0,1-.648.273,3.056,3.056,0,0,1-.818.068h-.886v2.181H477.3Zm1.227,2.352h.818a.944.944,0,0,0,.307-.034,2.341,2.341,0,0,0,.273-.1.578.578,0,0,0,.2-.2,1.009,1.009,0,0,0,.068-.341.509.509,0,0,0-.1-.341.458.458,0,0,0-.239-.2c-.1-.034-.2-.068-.341-.1-.136,0-.239-.034-.375-.034h-.614Z" transform="translate(-440.08 -131.064)" fill="#fff"/>
      <path id="Path_3086" data-name="Path 3086" d="M494.3,131.2h1.875l1.3,3.647h0l1.3-3.647h1.841v5.59h-1.227V132.5h0l-1.466,4.26h-.954l-1.4-4.26h0v4.26h-1.227V131.2Z" transform="translate(-451.286 -131.064)" fill="#fff"/>
      <path id="Path_3087" data-name="Path 3087" d="M518.7,131.2h3.783v1.125h-2.556v1.057h2.42v1.125h-2.42v1.125h2.693v1.125H518.7Z" transform="translate(-467.37 -131.064)" fill="#fff"/>
      <path id="Path_3088" data-name="Path 3088" d="M535.6,131.2h1.67l2.386,3.886h0V131.2h1.227v5.59h-1.6l-2.42-3.954h0v3.954h-1.227V131.2Z" transform="translate(-478.51 -131.064)" fill="#fff"/>
      <path id="Path_3089" data-name="Path 3089" d="M557,132.291h-1.6V131.2h4.4v1.091h-1.6v4.5h-1.227l.034-4.5Z" transform="translate(-491.561 -131.064)" fill="#fff"/>
    </g>
  </g>
</svg>
