<svg xmlns="http://www.w3.org/2000/svg" width="15.342" height="13.203" viewBox="0 0 15.342 13.203">
  <path id="Path_2922" data-name="Path 2922" d="M226.116,351.03a3.483,3.483,0,0,1,3.489,3.474,3.366,3.366,0,0,1-.252,1.272l2.039,2.029a8.214,8.214,0,0,0,2.392-3.3,8.253,8.253,0,0,0-7.675-5.213,8.131,8.131,0,0,0-2.777.487l1.506,1.5a3.372,3.372,0,0,1,1.278-.251m-6.978-1.9.887-.882,12.37,12.321-.887.882-2.043-2.028-.294-.293a8.258,8.258,0,0,1-10.728-4.628,8.189,8.189,0,0,1,2.609-3.467l-.322-.32Zm3.86,3.844,1.082,1.076a1.849,1.849,0,0,0-.056.452,2.085,2.085,0,0,0,2.092,2.085,1.991,1.991,0,0,0,.453-.055l1.082,1.076A3.454,3.454,0,0,1,223,352.975m3.007-.544.118-.005a2.086,2.086,0,0,1,2.094,2.084l-.015.111Z" transform="translate(-218.443 -348.25)" fill="#fff" fill-rule="evenodd"/>
</svg>
