<svg xmlns="http://www.w3.org/2000/svg" width="22" height="20" viewBox="0 0 22 20">
  <g id="Group_401" data-name="Group 401" transform="translate(-300.259 -121.208)">
    <g id="Group_388" data-name="Group 388">
      <path id="Path_2864" data-name="Path 2864" d="M22,6.54a8.307,8.307,0,0,1-.234.839,2.605,2.605,0,0,1-4.456.949c-.035-.039-.072-.076-.124-.13a2.574,2.574,0,0,1-4.123,0,2.574,2.574,0,0,1-4.126,0A2.633,2.633,0,0,1,6.876,9.229a2.566,2.566,0,0,1-2.012-.976,8.394,8.394,0,0,1-1.114.753A2.763,2.763,0,0,1,0,6.373a1.29,1.29,0,0,1,.2-.79Q1.849,3,3.5.42A.809.809,0,0,1,4.224,0Q11,.005,17.782,0a.792.792,0,0,1,.711.408Q20.144,3,21.8,5.591a3.249,3.249,0,0,1,.2.468Z" transform="translate(300.258 121.208)" fill="#fff"/>
      <path id="Path_2865" data-name="Path 2865" d="M44.747,169.449v.249q0,3.773,0,7.546c0,1.058-.565,1.693-1.506,1.7H42.005v-7.672H37.878v7.672H27.014c-.957,0-1.52-.632-1.52-1.7q0-3.773,0-7.546v-.264c.211.055.407.114.606.156a3.632,3.632,0,0,0,2.668-.4.3.3,0,0,1,.336,0,3.733,3.733,0,0,0,3.778,0,.329.329,0,0,1,.356,0,3.719,3.719,0,0,0,3.758,0,.348.348,0,0,1,.376,0,3.731,3.731,0,0,0,3.759,0,.284.284,0,0,1,.316-.021,3.583,3.583,0,0,0,3.157.316,1.035,1.035,0,0,1,.141-.029m-16.492,6.4h5.474v-4.586H28.255Z" transform="translate(276.137 -37.733)" fill="#fff"/>
    </g>
  </g>
</svg>
