<svg xmlns="http://www.w3.org/2000/svg" xmlns:xlink="http://www.w3.org/1999/xlink" width="29.591" height="25" viewBox="0 0 29.591 25">
  <defs>
    <clipPath id="clip-path">
      <rect id="Rectangle_47" data-name="Rectangle 47" width="29.591" height="25" fill="#818386"/>
    </clipPath>
  </defs>
  <g id="Group_65" data-name="Group 65" transform="translate(0 0)">
    <g id="Group_64" data-name="Group 64" transform="translate(0 0)" clip-path="url(#clip-path)">
      <path id="Path_162" data-name="Path 162" d="M17.844,11.184a4.1,4.1,0,0,1-5.844,0,4.185,4.185,0,0,1,0-5.89,4.1,4.1,0,0,1,5.844,0,4.186,4.186,0,0,1,0,5.891M24.8,14.161a.694.694,0,0,0-.371-.11h-2.5a8.977,8.977,0,0,0,1.245-2.242A8.428,8.428,0,0,0,23.7,8.287,8.989,8.989,0,0,0,21.044,2.5,8.742,8.742,0,0,0,8.8,2.5,8.99,8.99,0,0,0,6.145,8.289a8.409,8.409,0,0,0,.525,3.52,8.971,8.971,0,0,0,1.245,2.242H5.157a.692.692,0,0,0-.625.4L.064,24.025a.686.686,0,0,0,.3.893A.7.7,0,0,0,.689,25H28.9a.685.685,0,0,0,.625-.976L25.057,14.45a.693.693,0,0,0-.254-.29m-7.945,5.3L20.7,15.431h3.294l1.877,4.026Zm-2.435,1.506a.688.688,0,0,0,.228.159.685.685,0,0,0,.542,0,.687.687,0,0,0,.228-.159l.12-.126h3.586l.832,2.783H6.895l.833-2.783H14.3ZM9.517,19.457l.7-2.9,2.769,2.9ZM8.651,12.7c1.266,1.975,4.859,5.323,6.261,6.792,1.387-1.452,5.024-4.833,6.282-6.79a7.161,7.161,0,0,0,.689-1.37,7.074,7.074,0,0,0,.441-2.948,7.6,7.6,0,0,0-2.248-4.9,7.365,7.365,0,0,0-10.307,0,7.6,7.6,0,0,0-2.248,4.9A7.153,7.153,0,0,0,8.651,12.7m.419,2.734L8.1,19.457H3.719L5.6,15.431ZM6.287,20.837,5.455,23.62H1.771l1.3-2.783Zm14.28,0h5.949l1.3,2.783H21.4Zm-3.7-14.571a2.727,2.727,0,0,0-3.891,0,2.811,2.811,0,0,0,0,3.946,2.727,2.727,0,0,0,3.89,0,2.811,2.811,0,0,0,0-3.946" transform="translate(0 0)" fill="#818386" fill-rule="evenodd"/>
    </g>
  </g>
</svg>
